<?xml version="1.0" encoding="utf-8"?>
<!-- Generator: Adobe Illustrator 16.0.0, SVG Export Plug-In . SVG Version: 6.00 Build 0)  -->
<!DOCTYPE svg PUBLIC "-//W3C//DTD SVG 1.1//EN" "http://www.w3.org/Graphics/SVG/1.1/DTD/svg11.dtd">
<svg version="1.1" id="Layer_1" xmlns="http://www.w3.org/2000/svg" xmlns:xlink="http://www.w3.org/1999/xlink" x="0px" y="0px"
	 width="500px" height="500px" viewBox="0 0 500 500" enable-background="new 0 0 500 500" xml:space="preserve">
<g>
	<g>
		<path fill="#222325" d="M425.486,277.845H97.28c0-53.794,66.16-97.979,150.325-102.324c4.598-0.281,9.207-0.41,13.818-0.39
			c4.616,0,9.249,0.097,13.763,0.39c84.21,4.345,150.304,48.53,150.304,102.324H425.486z"/>
		<path fill="#222325" d="M425.606,283.797H97.28c-3.286,0-5.955-2.661-5.955-5.951c0-57.128,67.056-103.681,155.965-108.27
			c4.215-0.271,8.733-0.401,14.133-0.401c5.34,0,9.97,0.13,14.15,0.408c88.175,4.545,154.895,50.456,155.858,107.013
			c0.694,3.214-1.349,6.376-4.56,7.068c-0.416,0.089-0.836,0.133-1.264,0.133H425.606z M103.531,271.887h315.702
			c-4.816-47.233-66.49-86.405-144.356-90.42c-4.479-0.276-8.971-0.405-13.46-0.385c-5.142,0-9.407,0.125-13.435,0.381
			C170.031,185.486,108.343,224.647,103.531,271.887z"/>
	</g>
	<path fill="#222325" d="M298.591,183.616c-3.288,0-5.957-2.66-5.957-5.951v-25.104h-62.495v25.104c0,3.29-2.664,5.955-5.957,5.955
		c-3.287,0-5.951-2.665-5.951-5.955v-31.054c0-3.295,2.668-5.954,5.956-5.954h74.404c3.285,0,5.954,2.659,5.954,5.954v31.054
		C304.545,180.954,301.876,183.616,298.591,183.616z"/>
	<g>
		<path fill="#222325" d="M59.856,308.422v23.96h34.506v134.419c0,0,3.365,17.771,34.489,22.224c31.12,4.447,267.88,0,267.88,0
			s22.339-1.12,25.032-26.113c2.715-24.995,0-128.874,0-128.874h40.593V306.81h-37.878l-0.18-7.775H93.682v9.455L59.856,308.422z"/>
		<path fill="#222325" d="M212.135,496.956c-47.016,0-74.541-0.664-84.121-2.035c-34.937-5.004-39.332-26.113-39.5-27.006
			c-0.073-0.371-0.11-0.74-0.11-1.114V338.344H59.856c-3.287,0-5.957-2.659-5.957-5.953v-23.959
			c-0.01-3.282,2.642-5.947,5.925-5.956c0.008,0,0.02,0,0.032,0h0.01l27.865,0.064v-3.482c0-3.289,2.665-5.95,5.951-5.95h330.616
			c3.231,0,5.874,2.582,5.949,5.822l0.051,1.952h32.063c3.283,0,5.951,2.657,5.951,5.958v27.217c0,3.294-2.668,5.952-5.957,5.952
			h-34.488c0.543,22.858,2.185,101.712-0.186,123.559c-2.559,23.773-21.171,30.947-30.654,31.419
			c-1.232,0.018-106.368,1.976-184.896,1.976L212.135,496.956z M100.319,466.059c0.716,2.202,5.544,13.67,29.386,17.074
			c6.112,0.877,25.389,1.92,82.437,1.92c78.409,0,183.432-1.954,184.487-1.979c1.546-0.11,17.166-1.665,19.228-20.796
			c2.636-24.321-0.005-127.043-0.031-128.08c-0.042-1.606,0.563-3.157,1.682-4.314c1.123-1.143,2.663-1.8,4.264-1.8h34.644v-15.311
			h-31.929c-3.24-0.005-5.883-2.586-5.957-5.821L418.483,305H99.64v3.492c0.007,3.282-2.65,5.947-5.93,5.955
			c-0.008,0-0.017,0-0.028,0h-0.009l-27.867-0.067v12.043h28.548c3.288,0,5.958,2.66,5.958,5.948v133.688H100.319z"/>
	</g>
	<g>
		<path fill="#222325" d="M158.721,10.316c-37.335,32.737-7.921,75.739-7.921,75.739c26.031,36.654,8.303,38.615-2.634,69.891
			c0,0,5.523-21.471-1.318-42.519c-4.65-14.312-22.889-34.463-24.762-43.333C116.833,45.218,128.043,20.443,158.721,10.316
			L158.721,10.316z"/>
		<path fill="#222325" d="M150.276,156.683l-4.269-1.292c0.053-0.211,5.268-21.129-1.281-41.269
			c-2.345-7.216-8.508-16.309-13.947-24.333c-5.313-7.831-9.895-14.596-10.873-19.239c-5.971-28.266,8.993-52.734,38.125-62.36
			l10.428-3.44l-8.258,7.245c-35.439,31.073-7.829,72.384-7.548,72.808c19.874,27.988,14.923,37.122,6.702,52.248
			C156.441,142.431,153.126,148.524,150.276,156.683z M149.594,16.541c-20.565,10.609-30.161,30.187-25.326,53.092
			c0.808,3.789,5.37,10.527,10.205,17.653c5.603,8.268,11.958,17.641,14.495,25.451c3.235,9.946,3.815,19.902,3.474,27.797
			c1.02-1.987,2.022-3.838,2.99-5.61c7.888-14.524,11.848-21.812-6.442-47.572c-0.303-0.443-25.725-38.488,0.598-70.811H149.594z"/>
	</g>
	<g>
		<path fill="#222325" d="M398.037,9.594c-37.34,32.743-7.919,75.751-7.919,75.751c26.025,36.647,8.302,38.611-2.645,69.884
			c0,0,5.532-21.467-1.315-42.512c-4.648-14.316-22.879-34.475-24.757-43.34C356.144,44.51,367.36,19.723,398.037,9.594
			L398.037,9.594z"/>
		<path fill="#222325" d="M389.582,155.969l-4.273-1.302c0.058-0.195,5.277-21.123-1.274-41.26
			c-2.342-7.215-8.507-16.315-13.948-24.339c-5.304-7.825-9.891-14.597-10.87-19.232c-5.967-28.263,8.991-52.738,38.125-62.368
			l10.428-3.44l-8.264,7.248c-35.444,31.072-7.83,72.394-7.549,72.812c19.874,27.996,14.915,37.125,6.695,52.251
			C395.744,141.717,392.437,147.812,389.582,155.969L389.582,155.969z M388.901,15.822c-20.56,10.606-30.152,30.194-25.318,53.096
			c0.802,3.781,5.359,10.523,10.2,17.646c5.603,8.275,11.956,17.65,14.497,25.458c3.228,9.944,3.808,19.896,3.472,27.789
			c1.014-1.976,2.019-3.831,2.982-5.598c7.891-14.517,11.854-21.81-6.433-47.576c-0.299-0.447-25.729-38.489,0.593-70.815H388.901z"
			/>
	</g>
	<g>
		<path fill="#222325" d="M469.546,105.158c-27.648,28.085-5.857,64.962-5.857,64.962c19.275,31.39,6.152,33.076-1.954,59.898
			c0,0,4.097-18.417-0.977-36.445c-3.435-12.263-16.939-29.558-18.339-37.147C438.525,135.096,446.837,113.858,469.546,105.158z"/>
		<path fill="#222325" d="M463.869,230.664l-4.318-1.126c0.044-0.176,3.915-18.11-0.942-35.36
			c-1.734-6.169-6.293-13.964-10.319-20.845c-3.934-6.715-7.324-12.526-8.063-16.507c-4.436-24.306,6.756-45.414,28.527-53.745
			l9.61-3.673l-7.214,7.322c-26.149,26.554-5.743,61.906-5.539,62.265c14.762,24.025,11.081,31.869,4.987,44.863
			C468.429,218.451,465.974,223.677,463.869,230.664L463.869,230.664z M461.24,111.903c-16.051,10.687-19.381,29.038-16.624,44.108
			c0.596,3.222,3.963,8.98,7.524,15.06c4.163,7.107,8.883,15.17,10.765,21.892c2.091,7.435,2.687,14.865,2.632,21.144l1.01-2.149
			c5.826-12.425,8.751-18.664-4.764-40.664c-0.219-0.378-18.421-31.916-0.543-59.398V111.903z"/>
	</g>
	<g>
		<path fill="#222325" d="M73.669,109.364c-26.714,27.137-5.664,62.77-5.664,62.77c18.625,30.34,5.94,31.955-1.895,57.891
			c0,0,3.967-17.795-0.939-35.227c-3.326-11.848-16.369-28.561-17.72-35.899C43.701,138.281,51.718,117.775,73.669,109.364z"/>
		<path fill="#222325" d="M68.256,230.664l-4.32-1.126c0.034-0.169,3.772-17.478-0.91-34.127
			c-1.671-5.951-6.078-13.482-9.961-20.117c-3.811-6.511-7.093-12.12-7.81-15.994c-4.29-23.532,6.544-43.954,27.612-52.02
			l9.602-3.672l-7.215,7.325c-25.213,25.611-5.53,59.723-5.334,60.07c14.278,23.246,10.718,30.849,4.817,43.425
			c-2.089,4.441-4.451,9.494-6.49,16.236H68.256z M65.38,116.145c-15.208,10.335-18.363,27.909-15.735,42.347
			c0.57,3.103,3.824,8.659,7.271,14.54c4.015,6.875,8.579,14.66,10.402,21.157c1.98,7.067,2.571,14.114,2.551,20.107l0.828-1.768
			c5.622-11.985,8.443-17.991-4.594-39.224C65.884,172.94,48.413,142.653,65.38,116.145L65.38,116.145z"/>
	</g>
</g>
</svg>
